<svg id="check_circle_outline_black_24dp" xmlns="http://www.w3.org/2000/svg" width="110.265" height="110.265" viewBox="0 0 110.265 110.265">
  <path id="Path_9030" data-name="Path 9030" d="M0,0H110.265V110.265H0Z" fill="none"/>
  <path id="Path_9031" data-name="Path 9031" d="M47.944,2A45.944,45.944,0,1,0,93.887,47.944,45.96,45.96,0,0,0,47.944,2Zm0,82.7A36.755,36.755,0,1,1,84.7,47.944,36.8,36.8,0,0,1,47.944,84.7ZM65.77,30.9,38.755,57.913l-8.637-8.637a4.581,4.581,0,0,0-6.478,6.478l11.9,11.9a4.575,4.575,0,0,0,6.478,0L72.294,37.377a4.575,4.575,0,0,0,0-6.478,4.631,4.631,0,0,0-6.524,0Z" transform="translate(7.189 7.189)" fill="#fbb03b"/>
</svg>
